<svg width="400" height="400" viewBox="0 0 400 400" fill="none" xmlns="http://www.w3.org/2000/svg">
<path fill-rule="evenodd" clip-rule="evenodd" d="M201.2 74.643C195.136 75.801 189.473 77.863 183.819 80.971C182.865 81.495 178.175 84.653 176.8 85.696C173.63 88.102 167.073 95.176 164.8 98.643C162.951 101.462 160 106.337 160 106.571C160 108.446 157.217 111.78 155.237 112.277C149.927 113.609 141.102 122.176 138.011 129C137.512 130.1 136.94 131.322 136.739 131.716C136.538 132.11 136.181 133.37 135.946 134.516C135.711 135.662 135.365 137.32 135.177 138.2C134.633 140.744 134.747 146.028 135.4 148.535C135.73 149.802 136.001 151.145 136.002 151.52C136.004 151.894 136.274 152.716 136.602 153.346C136.931 153.976 137.2 154.703 137.2 154.961C137.2 159.224 150.788 173.2 154.932 173.2C155.212 173.2 155.611 173.357 155.82 173.548C156.029 173.74 157.55 174.325 159.2 174.848L162.2 175.8H198.8C239.115 175.8 236.082 175.962 243.065 173.431C251.036 170.543 259.732 162.644 263.359 155C263.776 154.12 264.274 153.083 264.465 152.695C267.887 145.756 268.443 130.648 265.616 121.41C265.413 120.744 264.849 118.76 264.362 117C263.876 115.24 263.352 113.53 263.198 113.2C263.044 112.87 262.655 111.97 262.333 111.2C258.42 101.83 251.583 92.3 244.981 87.014C243.892 86.141 242.91 85.309 242.8 85.165C242.266 84.464 235.449 80.333 232.759 79.08C222.921 74.497 210.851 72.8 201.2 74.643ZM219.4 87.836C220.28 88.14 221.27 88.392 221.6 88.397C221.93 88.401 222.716 88.674 223.346 89.002C223.976 89.331 224.665 89.6 224.878 89.6C226.715 89.6 234.442 94.594 238.57 98.449C246.085 105.467 250.448 113.502 253.639 126.2C254.609 130.064 254.603 141.96 253.628 145.109C250.703 154.56 243.536 160.772 233.2 162.814C227.858 163.869 170.609 164.002 165.179 162.972C148.578 159.823 142.032 140.521 153.6 128.831C156.274 126.129 157.366 125.382 161.217 123.619C161.777 123.363 163.293 123.01 164.587 122.834C167.057 122.499 168.4 121.49 168.4 119.969C168.4 119.561 168.696 118.546 169.058 117.714C169.42 116.881 169.986 115.57 170.317 114.8C170.647 114.03 171.061 113.13 171.237 112.8C171.413 112.47 172.041 111.3 172.632 110.2C178.292 99.674 189.252 90.84 200.2 87.979C204.827 86.77 216.071 86.686 219.4 87.836Z" fill="white"/>
<path d="M139.311 254.368V247.168H148.887V253.216C148.887 259.552 145.911 262.72 139.959 262.72H130.887C124.935 262.72 121.959 259.552 121.959 253.216V224.2C121.959 217.864 124.935 214.696 130.887 214.696H139.959C145.911 214.696 148.887 217.864 148.887 224.2V228.592H139.311V222.976C139.311 222.592 139.167 222.256 138.879 221.968C138.639 221.68 138.327 221.536 137.943 221.536H133.407C133.023 221.536 132.687 221.68 132.399 221.968C132.159 222.256 132.039 222.592 132.039 222.976V254.368C132.039 254.752 132.159 255.088 132.399 255.376C132.687 255.664 133.023 255.808 133.407 255.808H137.943C138.327 255.808 138.639 255.664 138.879 255.376C139.167 255.088 139.311 254.752 139.311 254.368ZM165.016 253.504H176.032V262H154.936V215.416H165.016V253.504ZM208.243 224.2V253.216C208.243 259.552 205.267 262.72 199.315 262.72H189.739C183.787 262.72 180.811 259.552 180.811 253.216V224.2C180.811 217.864 183.787 214.696 189.739 214.696H199.315C205.267 214.696 208.243 217.864 208.243 224.2ZM198.163 254.368V222.976C198.163 222.592 198.019 222.256 197.731 221.968C197.491 221.68 197.179 221.536 196.795 221.536H192.259C191.875 221.536 191.539 221.68 191.251 221.968C191.011 222.256 190.891 222.592 190.891 222.976V254.368C190.891 254.752 191.011 255.088 191.251 255.376C191.539 255.664 191.875 255.808 192.259 255.808H196.795C197.179 255.808 197.491 255.664 197.731 255.376C198.019 255.088 198.163 254.752 198.163 254.368ZM232.318 215.416H242.398V253.216C242.398 259.552 239.422 262.72 233.47 262.72H224.542C218.59 262.72 215.614 259.552 215.614 253.216V215.416H225.694V254.08C225.694 254.464 225.814 254.8 226.054 255.088C226.342 255.376 226.678 255.52 227.062 255.52H230.95C231.334 255.52 231.646 255.376 231.886 255.088C232.174 254.8 232.318 254.464 232.318 254.08V215.416ZM267.799 215.416C273.751 215.416 276.727 218.584 276.727 224.92V252.496C276.727 258.832 273.751 262 267.799 262H249.295V215.416H267.799ZM266.647 253.648V223.696C266.647 223.312 266.503 222.976 266.215 222.688C265.975 222.4 265.663 222.256 265.279 222.256H259.375V255.088H265.279C265.663 255.088 265.975 254.944 266.215 254.656C266.503 254.368 266.647 254.032 266.647 253.648ZM138.386 303.656H128.81V299.984C128.81 299.6 128.666 299.264 128.378 298.976C128.138 298.688 127.826 298.544 127.441 298.544H123.482C123.098 298.544 122.762 298.688 122.474 298.976C122.234 299.264 122.114 299.6 122.114 299.984V308.264C122.114 308.648 122.234 308.984 122.474 309.272C122.762 309.56 123.098 309.704 123.482 309.704H129.962C135.914 309.8 138.89 312.968 138.89 319.208V329.216C138.89 335.552 135.914 338.72 129.962 338.72H121.466C115.514 338.72 112.538 335.552 112.538 329.216V324.392H122.114V329.576C122.114 329.96 122.234 330.296 122.474 330.584C122.762 330.872 123.098 331.016 123.482 331.016H127.945C128.33 331.016 128.642 330.872 128.882 330.584C129.17 330.296 129.314 329.96 129.314 329.576V320.432C129.314 320.048 129.17 319.712 128.882 319.424C128.642 319.136 128.33 318.992 127.945 318.992H121.466C115.514 318.992 112.538 315.824 112.538 309.488V300.2C112.538 293.864 115.514 290.696 121.466 290.696H129.458C135.41 290.696 138.386 293.864 138.386 300.2V303.656ZM142.85 299.984V291.416H168.05V299.984H160.49V338H150.41V299.984H142.85ZM189.287 291.416H199.367V329.216C199.367 335.552 196.391 338.72 190.439 338.72H181.511C175.559 338.72 172.583 335.552 172.583 329.216V291.416H182.663V330.08C182.663 330.464 182.783 330.8 183.023 331.088C183.311 331.376 183.647 331.52 184.031 331.52H187.919C188.303 331.52 188.615 331.376 188.855 331.088C189.143 330.8 189.287 330.464 189.287 330.08V291.416ZM224.768 291.416C230.72 291.416 233.696 294.584 233.696 300.92V328.496C233.696 334.832 230.72 338 224.768 338H206.264V291.416H224.768ZM223.616 329.648V299.696C223.616 299.312 223.472 298.976 223.184 298.688C222.944 298.4 222.632 298.256 222.248 298.256H216.344V331.088H222.248C222.632 331.088 222.944 330.944 223.184 330.656C223.472 330.368 223.616 330.032 223.616 329.648ZM251.289 291.416V338H241.209V291.416H251.289ZM286.22 300.2V329.216C286.22 335.552 283.244 338.72 277.292 338.72H267.716C261.764 338.72 258.788 335.552 258.788 329.216V300.2C258.788 293.864 261.764 290.696 267.716 290.696H277.292C283.244 290.696 286.22 293.864 286.22 300.2ZM276.14 330.368V298.976C276.14 298.592 275.996 298.256 275.708 297.968C275.468 297.68 275.156 297.536 274.772 297.536H270.236C269.852 297.536 269.516 297.68 269.228 297.968C268.988 298.256 268.868 298.592 268.868 298.976V330.368C268.868 330.752 268.988 331.088 269.228 331.376C269.516 331.664 269.852 331.808 270.236 331.808H274.772C275.156 331.808 275.468 331.664 275.708 331.376C275.996 331.088 276.14 330.752 276.14 330.368Z" fill="white"/>
</svg>
